<svg id="Capa_1" data-name="Capa 1" xmlns="http://www.w3.org/2000/svg" viewBox="0 0 292.63 292.63"><defs><style>.cls-1{fill:#bae2f5;stroke:#000;stroke-linecap:round;stroke-linejoin:round;stroke-width:8px;}.cls-2{font-size:20px;font-family:MyriadPro-Regular, Myriad Pro;}</style></defs><title>Rombo</title><rect class="cls-1" x="62.96" y="118.33" width="67.28" height="67.28" transform="translate(-124.19 106.76) rotate(-45)"/><text class="cls-2" transform="translate(39.86 151.16)">04</text><rect class="cls-1" x="110.38" y="70.92" width="67.28" height="67.28" transform="translate(-76.78 126.4) rotate(-45)"/><text class="cls-2" transform="translate(87.27 103.74)">02</text><rect class="cls-1" x="157.3" y="23.99" width="67.28" height="67.28" transform="translate(-29.85 145.84) rotate(-45)"/><text class="cls-2" transform="translate(134.2 56.82)">01</text><rect class="cls-1" x="110.53" y="165.91" width="67.28" height="67.28" transform="translate(-143.9 154.33) rotate(-45)"/><text class="cls-2" transform="translate(87.43 198.73)">07</text><rect class="cls-1" x="157.95" y="118.49" width="67.28" height="67.28" transform="translate(-96.49 173.97) rotate(-45)"/><text class="cls-2" transform="translate(134.84 151.32)">05</text><rect class="cls-1" x="204.88" y="71.56" width="67.28" height="67.28" transform="translate(-49.56 193.41) rotate(-45)"/><text class="cls-2" transform="translate(181.77 104.39)">03</text><rect class="cls-1" x="158.11" y="213.48" width="67.28" height="67.28" transform="translate(-163.61 201.91) rotate(-45)"/><text class="cls-2" transform="translate(135 246.3)">09</text><rect class="cls-1" x="205.52" y="166.06" width="67.28" height="67.28" transform="translate(-116.19 221.55) rotate(-45)"/><text class="cls-2" transform="translate(182.41 198.89)">08</text><rect class="cls-1" x="252.45" y="119.14" width="67.28" height="67.28" transform="translate(-69.26 240.98) rotate(-45)"/><text class="cls-2" transform="translate(229.34 151.96)">06</text></svg>